<svg width="27" height="27" viewBox="0 0 27 27" fill="none" xmlns="http://www.w3.org/2000/svg">
<path d="M21.8333 13.5C21.8333 18.1024 18.1024 21.8333 13.5 21.8333C8.89763 21.8333 5.16667 18.1024 5.16667 13.5C5.16667 8.89763 8.89763 5.16667 13.5 5.16667C18.1024 5.16667 21.8333 8.89763 21.8333 13.5Z" stroke="#00A651"/>
<path d="M26 13.5C26 20.4036 20.4036 26 13.5 26C6.59644 26 1 20.4036 1 13.5C1 6.59644 6.59644 1 13.5 1C20.4036 1 26 6.59644 26 13.5Z" stroke="#00A651"/>
<path d="M17.6667 13.5C17.6667 15.8012 15.8012 17.6667 13.5 17.6667C11.1988 17.6667 9.33333 15.8012 9.33333 13.5C9.33333 11.1988 11.1988 9.33333 13.5 9.33333C15.8012 9.33333 17.6667 11.1988 17.6667 13.5Z" stroke="#00A651"/>
</svg>
