<svg width="21" height="22" viewBox="0 0 21 22" fill="none"
    xmlns="http://www.w3.org/2000/svg">
    <path d="M8.37697 12.9613H7.87697V13.4613V21C7.87697 21.2761 7.65311 21.5 7.37697 21.5H1C0.723857 21.5 0.5 21.2761 0.5 21V11.6635C0.5 10.997 0.766157 10.3581 1.23935 9.88865L9.4417 1.75193C10.0264 1.1719 10.9694 1.1718 11.5543 1.75171L19.4644 9.59525C20.1272 10.2525 20.5 11.1472 20.5 12.0806V21C20.5 21.2761 20.2761 21.5 20 21.5H13.623C13.3469 21.5 13.123 21.2761 13.123 21V13.4613V12.9613H12.623H8.37697Z" stroke="#00A651"/>
</svg>
