<svg width="80" height="80" viewBox="0 0 80 80" fill="none" xmlns="http://www.w3.org/2000/svg">
<rect x="1" y="1" width="78" height="78" rx="19" stroke="#00A651" stroke-width="2"/>
<path d="M23 57.8182V22C23 20.3431 24.3432 19 26 19H54.5455C56.2023 19 57.5455 20.3431 57.5455 22V57.8182C57.5455 59.475 56.2023 60.8182 54.5455 60.8182H26C24.3431 60.8182 23 59.475 23 57.8182Z" stroke="#00A651" stroke-width="2"/>
<path d="M34.8203 33.5449H51.1839" stroke="#00A651" stroke-width="2" stroke-linecap="round"/>
<path d="M34.8203 26.2715H45.7294" stroke="#00A651" stroke-width="2" stroke-linecap="round"/>
<path d="M34.8203 40.8184H51.1839" stroke="#00A651" stroke-width="2" stroke-linecap="round"/>
<path d="M34.8203 48.0898H51.1839" stroke="#00A651" stroke-width="2" stroke-linecap="round"/>
<path d="M34.8203 55.3633H51.1839" stroke="#00A651" stroke-width="2" stroke-linecap="round"/>
<circle cx="30.723" cy="55.4515" r="1.36364" fill="#00A651"/>
<circle cx="30.723" cy="48.18" r="1.36364" fill="#00A651"/>
<circle cx="30.723" cy="40.9066" r="1.36364" fill="#00A651"/>
<circle cx="30.723" cy="33.6332" r="1.36364" fill="#00A651"/>
</svg>
