<svg width="19" height="22" viewBox="0 0 19 22" fill="none" xmlns="http://www.w3.org/2000/svg">
<path fill-rule="evenodd" clip-rule="evenodd" d="M2 1C1.44772 1 1 1.44772 1 2V19.9091C1 20.4614 1.44771 20.9091 2 20.9091H16.2727C16.825 20.9091 17.2727 20.4614 17.2727 19.9091V2C17.2727 1.44771 16.825 1 16.2727 1H2ZM0 2C0 0.895429 0.895434 0 2 0H16.2727C17.3773 0 18.2727 0.895427 18.2727 2V19.9091C18.2727 21.0137 17.3773 21.9091 16.2727 21.9091H2C0.895432 21.9091 0 21.0137 0 19.9091V2Z" fill="#00A651"/>
<path fill-rule="evenodd" clip-rule="evenodd" d="M5.91016 7.77246C5.91016 7.49632 6.13401 7.27246 6.41016 7.27246H14.592C14.8681 7.27246 15.092 7.49632 15.092 7.77246C15.092 8.0486 14.8681 8.27246 14.592 8.27246H6.41016C6.13401 8.27246 5.91016 8.0486 5.91016 7.77246Z" fill="#00A651"/>
<path fill-rule="evenodd" clip-rule="evenodd" d="M5.91016 4.13574C5.91016 3.8596 6.13401 3.63574 6.41016 3.63574H11.8647C12.1408 3.63574 12.3647 3.8596 12.3647 4.13574C12.3647 4.41188 12.1408 4.63574 11.8647 4.63574H6.41016C6.13401 4.63574 5.91016 4.41188 5.91016 4.13574Z" fill="#00A651"/>
<path fill-rule="evenodd" clip-rule="evenodd" d="M5.91016 11.4092C5.91016 11.133 6.13401 10.9092 6.41016 10.9092H14.592C14.8681 10.9092 15.092 11.133 15.092 11.4092C15.092 11.6853 14.8681 11.9092 14.592 11.9092H6.41016C6.13401 11.9092 5.91016 11.6853 5.91016 11.4092Z" fill="#00A651"/>
<path fill-rule="evenodd" clip-rule="evenodd" d="M5.91016 15.0449C5.91016 14.7688 6.13401 14.5449 6.41016 14.5449H14.592C14.8681 14.5449 15.092 14.7688 15.092 15.0449C15.092 15.3211 14.8681 15.5449 14.592 15.5449H6.41016C6.13401 15.5449 5.91016 15.3211 5.91016 15.0449Z" fill="#00A651"/>
<path fill-rule="evenodd" clip-rule="evenodd" d="M5.91016 18.6816C5.91016 18.4055 6.13401 18.1816 6.41016 18.1816H14.592C14.8681 18.1816 15.092 18.4055 15.092 18.6816C15.092 18.9578 14.8681 19.1816 14.592 19.1816H6.41016C6.13401 19.1816 5.91016 18.9578 5.91016 18.6816Z" fill="#00A651"/>
<path d="M5.04332 18.7258C5.04332 19.1023 4.73806 19.4076 4.36151 19.4076C3.98495 19.4076 3.67969 19.1023 3.67969 18.7258C3.67969 18.3492 3.98495 18.0439 4.36151 18.0439C4.73806 18.0439 5.04332 18.3492 5.04332 18.7258Z" fill="#00A651"/>
<path d="M5.04332 15.09C5.04332 15.4666 4.73806 15.7718 4.36151 15.7718C3.98495 15.7718 3.67969 15.4666 3.67969 15.09C3.67969 14.7135 3.98495 14.4082 4.36151 14.4082C4.73806 14.4082 5.04332 14.7135 5.04332 15.09Z" fill="#00A651"/>
<path d="M5.04332 11.4533C5.04332 11.8299 4.73806 12.1351 4.36151 12.1351C3.98495 12.1351 3.67969 11.8299 3.67969 11.4533C3.67969 11.0767 3.98495 10.7715 4.36151 10.7715C4.73806 10.7715 5.04332 11.0767 5.04332 11.4533Z" fill="#00A651"/>
<path d="M5.04332 7.81658C5.04332 8.19314 4.73806 8.4984 4.36151 8.4984C3.98495 8.4984 3.67969 8.19314 3.67969 7.81658C3.67969 7.44003 3.98495 7.13477 4.36151 7.13477C4.73806 7.13477 5.04332 7.44003 5.04332 7.81658Z" fill="#00A651"/>
</svg>
