<svg width="306" height="431" viewBox="0 0 306 431" fill="none" xmlns="http://www.w3.org/2000/svg">
<path d="M5.49969 174.501V203.589V255H300.5V174.127V133H246.33V172.647C246.33 191.183 231.498 206.207 213.206 206.207C194.914 206.207 178.5 191.183 178.5 172.647V133H125.918V172.647C125.918 191.183 111.085 206.207 92.7933 206.207C74.5015 206.207 57.4997 191.183 57.4997 172.647V133H29.5749H5.49969V142.458V174.501Z" stroke="#ED1C24" stroke-width="10"/>
<path d="M1 60.2451V37.8315V30.999C1 14.4322 14.3851 1 30.8937 1H274.106C290.615 1 304 14.4322 304 30.999L304.5 60.5V94.5V127.5L244.377 128V67.5489C244.377 50.3515 230.486 36.4111 213.343 36.4111C196.206 36.4111 182.314 50.3515 182.314 67.5489V128H122.692V67.5489C122.692 50.3515 108.794 36.4111 91.657 36.4111C74.52 36.4111 61.5 50.3026 61.5 67.5V128L30.8142 128H1.5L1 84.9238V60.2451Z" fill="#ED1C24" stroke="#ED1C24" stroke-width="2"/>
<path d="M258.5 161.99V166.847C258.5 183.497 245.067 197 228.503 197C211.933 197 198.5 183.497 198.5 166.847V125H258.5V161.99Z" fill="#00A651" stroke="#00A651" stroke-width="2"/>
<path d="M136.5 161.99V166.847C136.5 183.497 123.067 197 106.497 197C89.9265 197 76.4998 183.497 76.4998 166.847V125H136.5V161.99Z" fill="#00A651" stroke="#00A651" stroke-width="2"/>
<path d="M17.582 290.509H28.9047L41.9897 334.201L55.0307 290.509H65.0317L46.792 354.38H37.1434L17.582 290.509ZM13 290.509H23.794L25.4682 332.622V354.38H13V290.509ZM60.0973 290.509H70.9354V354.38H58.5112V332.622L60.0973 290.509Z" fill="#121212" fill-opacity="0.95"/>
<path d="M100.057 355.258C96.797 355.258 93.9039 354.76 91.378 353.766C88.8814 352.772 86.7667 351.339 85.0337 349.467C83.3008 347.566 81.9791 345.27 81.0686 342.58C80.1581 339.889 79.7028 336.819 79.7028 333.368V329.464C79.7028 325.603 80.1434 322.225 81.0245 319.33C81.9057 316.406 83.154 313.949 84.7694 311.961C86.3848 309.972 88.3674 308.495 90.7171 307.53C93.0962 306.536 95.7837 306.038 98.7796 306.038C101.776 306.038 104.404 306.536 106.666 307.53C108.957 308.495 110.851 309.957 112.349 311.917C113.847 313.847 114.978 316.245 115.742 319.111C116.505 321.977 116.887 325.311 116.887 329.113V334.728H84.9456V326.086H104.771V324.989C104.771 323.059 104.566 321.45 104.155 320.164C103.743 318.848 103.097 317.868 102.216 317.225C101.335 316.581 100.16 316.26 98.6915 316.26C97.4579 316.26 96.4152 316.508 95.5634 317.005C94.7117 317.502 94.0361 318.277 93.5368 319.33C93.0375 320.383 92.6703 321.758 92.4354 323.454C92.2004 325.121 92.0829 327.124 92.0829 329.464V333.368C92.0829 335.561 92.2738 337.404 92.6557 338.895C93.0375 340.357 93.5955 341.556 94.3298 342.492C95.0935 343.399 96.0187 344.057 97.1054 344.466C98.1922 344.846 99.4552 345.036 100.894 345.036C103.068 345.036 105.021 344.656 106.754 343.896C108.516 343.106 110.014 342.039 111.248 340.694L116.182 348.151C115.331 349.262 114.156 350.374 112.658 351.485C111.16 352.596 109.368 353.503 107.283 354.205C105.197 354.907 102.789 355.258 100.057 355.258Z" fill="#121212" fill-opacity="0.95"/>
<path d="M147.111 343.896V287H159.491V354.38L148.3 354.424L147.111 343.896ZM122.394 332.315V329.156C122.394 325.296 122.717 321.918 123.364 319.023C124.039 316.128 125.038 313.715 126.36 311.785C127.681 309.855 129.297 308.422 131.206 307.486C133.144 306.521 135.362 306.038 137.858 306.038C140.12 306.038 142.103 306.609 143.806 307.749C145.539 308.861 147.008 310.425 148.212 312.443C149.416 314.461 150.385 316.844 151.12 319.593C151.854 322.342 152.368 325.355 152.662 328.63V333.192C152.309 336.292 151.766 339.187 151.032 341.878C150.327 344.569 149.357 346.908 148.124 348.897C146.92 350.885 145.466 352.45 143.762 353.591C142.059 354.702 140.076 355.258 137.814 355.258C135.318 355.258 133.1 354.76 131.162 353.766C129.253 352.772 127.637 351.309 126.315 349.379C125.023 347.42 124.039 345.022 123.364 342.185C122.717 339.319 122.394 336.029 122.394 332.315ZM134.73 329.156V332.315C134.73 334.538 134.833 336.453 135.039 338.062C135.274 339.641 135.641 340.942 136.14 341.966C136.669 342.96 137.359 343.706 138.211 344.203C139.063 344.671 140.12 344.905 141.383 344.905C143.028 344.905 144.364 344.495 145.392 343.677C146.42 342.828 147.184 341.673 147.683 340.211C148.212 338.72 148.506 337.009 148.564 335.079V326.788C148.506 325.179 148.315 323.732 147.992 322.445C147.669 321.158 147.213 320.061 146.626 319.155C146.038 318.248 145.304 317.546 144.423 317.049C143.571 316.552 142.573 316.303 141.427 316.303C140.194 316.303 139.136 316.552 138.255 317.049C137.403 317.546 136.728 318.321 136.228 319.374C135.729 320.398 135.347 321.728 135.083 323.366C134.848 324.974 134.73 326.905 134.73 329.156Z" fill="#121212" fill-opacity="0.95"/>
<path d="M205.002 343.764V354.38H178.347V343.764H205.002ZM182.312 290.509V354.38H169.404V290.509H182.312Z" fill="#121212" fill-opacity="0.95"/>
<path d="M231.172 355.258C227.912 355.258 225.019 354.76 222.493 353.766C219.996 352.772 217.881 351.339 216.148 349.467C214.415 347.566 213.094 345.27 212.183 342.58C211.273 339.889 210.817 336.819 210.817 333.368V329.464C210.817 325.603 211.258 322.225 212.139 319.33C213.02 316.406 214.269 313.949 215.884 311.961C217.499 309.972 219.482 308.495 221.832 307.53C224.211 306.536 226.898 306.038 229.894 306.038C232.89 306.038 235.519 306.536 237.78 307.53C240.071 308.495 241.966 309.957 243.464 311.917C244.962 313.847 246.093 316.245 246.856 319.111C247.62 321.977 248.002 325.311 248.002 329.113V334.728H216.06V326.086H235.886V324.989C235.886 323.059 235.68 321.45 235.269 320.164C234.858 318.848 234.212 317.868 233.331 317.225C232.45 316.581 231.275 316.26 229.806 316.26C228.573 316.26 227.53 316.508 226.678 317.005C225.826 317.502 225.151 318.277 224.651 319.33C224.152 320.383 223.785 321.758 223.55 323.454C223.315 325.121 223.198 327.124 223.198 329.464V333.368C223.198 335.561 223.388 337.404 223.77 338.895C224.152 340.357 224.71 341.556 225.444 342.492C226.208 343.399 227.133 344.057 228.22 344.466C229.307 344.846 230.57 345.036 232.009 345.036C234.182 345.036 236.136 344.656 237.869 343.896C239.631 343.106 241.129 342.039 242.362 340.694L247.297 348.151C246.445 349.262 245.27 350.374 243.772 351.485C242.274 352.596 240.483 353.503 238.397 354.205C236.312 354.907 233.903 355.258 231.172 355.258Z" fill="#121212" fill-opacity="0.95"/>
<path d="M255.183 287H267.475V343.37L266.594 354.38H255.183V287ZM292.235 329.069V332.183C292.235 336.044 291.927 339.407 291.31 342.273C290.723 345.139 289.798 347.537 288.535 349.467C287.301 351.397 285.715 352.845 283.776 353.81C281.838 354.775 279.547 355.258 276.903 355.258C274.524 355.258 272.483 354.702 270.779 353.591C269.076 352.45 267.637 350.885 266.462 348.897C265.316 346.879 264.376 344.525 263.642 341.834C262.937 339.114 262.423 336.146 262.1 332.929V328.323C262.394 325.165 262.893 322.225 263.598 319.506C264.332 316.786 265.272 314.432 266.418 312.443C267.563 310.425 268.988 308.861 270.691 307.749C272.424 306.609 274.466 306.038 276.815 306.038C279.518 306.038 281.838 306.536 283.776 307.53C285.715 308.495 287.301 309.943 288.535 311.873C289.798 313.803 290.723 316.216 291.31 319.111C291.927 321.977 292.235 325.296 292.235 329.069ZM279.943 332.183V329.069C279.943 326.875 279.855 324.989 279.679 323.41C279.503 321.831 279.18 320.515 278.71 319.462C278.24 318.409 277.564 317.619 276.683 317.093C275.831 316.567 274.701 316.303 273.291 316.303C272.028 316.303 270.97 316.552 270.119 317.049C269.267 317.517 268.533 318.219 267.916 319.155C267.328 320.061 266.888 321.143 266.594 322.401C266.33 323.629 266.183 324.989 266.153 326.481V334.772C266.183 336.789 266.432 338.573 266.902 340.123C267.372 341.673 268.121 342.872 269.149 343.72C270.207 344.569 271.617 344.993 273.379 344.993C274.759 344.993 275.875 344.759 276.727 344.291C277.579 343.823 278.24 343.077 278.71 342.053C279.209 341.03 279.532 339.714 279.679 338.105C279.855 336.468 279.943 334.494 279.943 332.183Z" fill="#121212" fill-opacity="0.95"/>
<path d="M24.5967 429.504H15.8816L15.9519 423.999H24.5967C27.6658 423.999 30.1608 423.415 32.0819 422.246C34.003 421.054 35.4204 419.301 36.334 416.987C37.2477 414.649 37.7046 411.762 37.7046 408.326V399.596C37.7046 396.884 37.4469 394.547 36.9314 392.583C36.416 390.62 35.6429 389.007 34.6121 387.745C33.5813 386.482 32.281 385.547 30.7114 384.94C29.1417 384.309 27.3026 383.993 25.1941 383.993H15.7059V378.453H25.1941C28.0758 378.453 30.6762 378.909 32.9956 379.821C35.3149 380.709 37.3063 382.053 38.9697 383.853C40.633 385.629 41.8981 387.838 42.765 390.48C43.6552 393.121 44.1003 396.183 44.1003 399.666V408.326C44.1003 411.809 43.6552 414.871 42.765 417.512C41.8981 420.154 40.6213 422.363 38.9345 424.139C37.2477 425.916 35.1978 427.26 32.7847 428.171C30.3951 429.06 27.6658 429.504 24.5967 429.504ZM19.4661 378.453V429.504H13V378.453H19.4661Z" fill="#121212" fill-opacity="0.95"/>
<path d="M51.9721 412.358V408.747C51.9721 405.802 52.3469 403.219 53.0966 400.998C53.8463 398.754 54.8888 396.884 56.2242 395.388C57.5596 393.892 59.1175 392.77 60.898 392.022C62.6785 391.251 64.5879 390.865 66.6261 390.865C68.7112 390.865 70.644 391.251 72.4245 392.022C74.205 392.77 75.7629 393.892 77.0983 395.388C78.4571 396.884 79.5114 398.754 80.2611 400.998C81.0108 403.219 81.3856 405.802 81.3856 408.747V412.358C81.3856 415.304 81.0108 417.898 80.2611 420.142C79.5114 422.363 78.4689 424.221 77.1335 425.717C75.7981 427.213 74.2401 428.335 72.4596 429.083C70.6791 429.831 68.7581 430.205 66.6964 430.205C64.6348 430.205 62.7137 429.831 60.9332 429.083C59.1527 428.335 57.583 427.213 56.2242 425.717C54.8888 424.221 53.8463 422.363 53.0966 420.142C52.3469 417.898 51.9721 415.304 51.9721 412.358ZM58.1921 408.747V412.358C58.1921 414.439 58.403 416.262 58.8247 417.828C59.2464 419.394 59.8438 420.703 60.6169 421.755C61.39 422.807 62.292 423.602 63.3228 424.139C64.3536 424.653 65.4782 424.911 66.6964 424.911C68.1021 424.911 69.332 424.653 70.3863 424.139C71.464 423.602 72.3542 422.807 73.057 421.755C73.7599 420.703 74.287 419.394 74.6384 417.828C74.9898 416.262 75.1655 414.439 75.1655 412.358V408.747C75.1655 406.667 74.9547 404.855 74.533 403.312C74.1113 401.746 73.5139 400.437 72.7408 399.385C71.9677 398.31 71.054 397.515 69.9997 397.001C68.9689 396.463 67.8444 396.195 66.6261 396.195C65.4313 396.195 64.3185 396.463 63.2877 397.001C62.2568 397.515 61.3549 398.31 60.5818 399.385C59.8321 400.437 59.2464 401.746 58.8247 403.312C58.403 404.855 58.1921 406.667 58.1921 408.747Z" fill="#121212" fill-opacity="0.95"/>
<path d="M95.618 399.666V429.504H89.3979V391.566H95.2666L95.618 399.666ZM94.1069 409.098L91.5767 408.992C91.5533 406.398 91.8461 404.002 92.4552 401.805C93.0878 399.584 93.978 397.656 95.126 396.019C96.2974 394.383 97.6913 393.121 99.3078 392.233C100.924 391.321 102.717 390.865 104.685 390.865C106.231 390.865 107.636 391.122 108.902 391.637C110.167 392.127 111.244 392.922 112.135 394.021C113.025 395.119 113.704 396.545 114.173 398.298C114.665 400.028 114.911 402.144 114.911 404.645V429.504H108.691V404.575C108.691 402.588 108.468 400.998 108.023 399.806C107.601 398.591 106.945 397.714 106.055 397.176C105.188 396.615 104.087 396.335 102.752 396.335C101.533 396.335 100.397 396.674 99.343 397.352C98.2887 398.03 97.3633 398.965 96.5668 400.157C95.7937 401.349 95.1846 402.716 94.7394 404.259C94.3177 405.778 94.1069 407.391 94.1069 409.098Z" fill="#121212" fill-opacity="0.95"/>
<path d="M142.883 423.017V402.436C142.883 400.94 142.649 399.736 142.181 398.824C141.735 397.913 141.056 397.247 140.142 396.826C139.252 396.405 138.128 396.195 136.769 396.195C135.457 396.195 134.321 396.463 133.36 397.001C132.423 397.539 131.697 398.252 131.181 399.14C130.689 400.028 130.443 401.01 130.443 402.085H124.223C124.223 400.729 124.516 399.385 125.102 398.053C125.711 396.721 126.578 395.517 127.702 394.442C128.827 393.343 130.174 392.478 131.744 391.847C133.337 391.192 135.117 390.865 137.085 390.865C139.428 390.865 141.501 391.251 143.305 392.022C145.109 392.77 146.526 393.997 147.557 395.704C148.588 397.41 149.104 399.678 149.104 402.506V421.229C149.104 422.491 149.197 423.835 149.385 425.261C149.596 426.687 149.888 427.914 150.263 428.943V429.504H143.832C143.528 428.756 143.293 427.762 143.129 426.523C142.965 425.261 142.883 424.093 142.883 423.017ZM143.867 406.503L143.938 411.061H139.615C138.139 411.061 136.792 411.225 135.574 411.552C134.379 411.879 133.348 412.358 132.482 412.989C131.615 413.597 130.947 414.357 130.478 415.269C130.033 416.18 129.811 417.22 129.811 418.389C129.811 419.908 130.022 421.124 130.443 422.036C130.865 422.924 131.498 423.567 132.341 423.964C133.184 424.361 134.25 424.56 135.539 424.56C137.109 424.56 138.491 424.198 139.686 423.473C140.88 422.748 141.806 421.872 142.462 420.843C143.141 419.815 143.457 418.857 143.411 417.968L144.781 420.878C144.687 421.79 144.383 422.784 143.867 423.859C143.375 424.911 142.684 425.927 141.794 426.909C140.904 427.868 139.85 428.662 138.631 429.293C137.437 429.901 136.089 430.205 134.59 430.205C132.388 430.205 130.455 429.784 128.792 428.943C127.152 428.101 125.875 426.862 124.961 425.226C124.048 423.59 123.591 421.568 123.591 419.16C123.591 417.337 123.907 415.654 124.54 414.111C125.172 412.569 126.109 411.236 127.351 410.114C128.593 408.969 130.15 408.081 132.025 407.45C133.922 406.819 136.113 406.503 138.596 406.503H143.867Z" fill="#121212" fill-opacity="0.95"/>
<path d="M172.648 391.566V396.545H154.902V391.566H172.648ZM160.7 382.345H166.92V420.107C166.92 421.393 167.073 422.363 167.377 423.017C167.705 423.672 168.115 424.104 168.607 424.315C169.099 424.525 169.626 424.63 170.189 424.63C170.61 424.63 171.079 424.583 171.594 424.49C172.11 424.373 172.461 424.279 172.648 424.209L172.613 429.504C172.192 429.667 171.629 429.819 170.926 429.96C170.224 430.123 169.333 430.205 168.256 430.205C166.92 430.205 165.679 429.889 164.531 429.258C163.383 428.627 162.457 427.575 161.755 426.103C161.052 424.607 160.7 422.597 160.7 420.072V382.345Z" fill="#121212" fill-opacity="0.95"/>
<path d="M186.74 391.566V429.504H180.555V391.566H186.74ZM180.204 381.504C180.204 380.452 180.497 379.564 181.082 378.839C181.668 378.114 182.547 377.752 183.718 377.752C184.889 377.752 185.768 378.114 186.354 378.839C186.963 379.564 187.267 380.452 187.267 381.504C187.267 382.509 186.963 383.374 186.354 384.098C185.768 384.799 184.889 385.15 183.718 385.15C182.547 385.15 181.668 384.799 181.082 384.098C180.497 383.374 180.204 382.509 180.204 381.504Z" fill="#121212" fill-opacity="0.95"/>
<path d="M195.28 412.358V408.747C195.28 405.802 195.654 403.219 196.404 400.998C197.154 398.754 198.196 396.884 199.532 395.388C200.867 393.892 202.425 392.77 204.206 392.022C205.986 391.251 207.895 390.865 209.934 390.865C212.019 390.865 213.952 391.251 215.732 392.022C217.513 392.77 219.071 393.892 220.406 395.388C221.765 396.884 222.819 398.754 223.569 400.998C224.318 403.219 224.693 405.802 224.693 408.747V412.358C224.693 415.304 224.318 417.898 223.569 420.142C222.819 422.363 221.776 424.221 220.441 425.717C219.106 427.213 217.548 428.335 215.767 429.083C213.987 429.831 212.066 430.205 210.004 430.205C207.942 430.205 206.021 429.831 204.241 429.083C202.46 428.335 200.891 427.213 199.532 425.717C198.196 424.221 197.154 422.363 196.404 420.142C195.654 417.898 195.28 415.304 195.28 412.358ZM201.5 408.747V412.358C201.5 414.439 201.711 416.262 202.132 417.828C202.554 419.394 203.151 420.703 203.924 421.755C204.698 422.807 205.6 423.602 206.63 424.139C207.661 424.653 208.786 424.911 210.004 424.911C211.41 424.911 212.64 424.653 213.694 424.139C214.772 423.602 215.662 422.807 216.365 421.755C217.067 420.703 217.595 419.394 217.946 417.828C218.297 416.262 218.473 414.439 218.473 412.358V408.747C218.473 406.667 218.262 404.855 217.841 403.312C217.419 401.746 216.821 400.437 216.048 399.385C215.275 398.31 214.362 397.515 213.307 397.001C212.276 396.463 211.152 396.195 209.934 396.195C208.739 396.195 207.626 396.463 206.595 397.001C205.564 397.515 204.662 398.31 203.889 399.385C203.14 400.437 202.554 401.746 202.132 403.312C201.711 404.855 201.5 406.667 201.5 408.747Z" fill="#121212" fill-opacity="0.95"/>
<path d="M238.926 399.666V429.504H232.705V391.566H238.574L238.926 399.666ZM237.414 409.098L234.884 408.992C234.861 406.398 235.154 404.002 235.763 401.805C236.395 399.584 237.286 397.656 238.434 396.019C239.605 394.383 240.999 393.121 242.615 392.233C244.232 391.321 246.024 390.865 247.992 390.865C249.538 390.865 250.944 391.122 252.209 391.637C253.474 392.127 254.552 392.922 255.442 394.021C256.332 395.119 257.012 396.545 257.48 398.298C257.972 400.028 258.218 402.144 258.218 404.645V429.504H251.998V404.575C251.998 402.588 251.776 400.998 251.331 399.806C250.909 398.591 250.253 397.714 249.363 397.176C248.496 396.615 247.395 396.335 246.059 396.335C244.841 396.335 243.705 396.674 242.651 397.352C241.596 398.03 240.671 398.965 239.874 400.157C239.101 401.349 238.492 402.716 238.047 404.259C237.625 405.778 237.414 407.391 237.414 409.098Z" fill="#121212" fill-opacity="0.95"/>
<path d="M286.015 419.792C286.015 418.833 285.781 417.992 285.312 417.267C284.844 416.542 284.071 415.841 282.993 415.163C281.939 414.485 280.51 413.761 278.706 412.989C276.949 412.265 275.367 411.552 273.962 410.851C272.579 410.126 271.408 409.343 270.448 408.502C269.487 407.66 268.749 406.69 268.234 405.591C267.742 404.469 267.496 403.149 267.496 401.629C267.496 400.11 267.777 398.707 268.339 397.422C268.925 396.113 269.745 394.967 270.799 393.986C271.853 393.004 273.118 392.244 274.594 391.707C276.07 391.146 277.722 390.865 279.549 390.865C282.15 390.865 284.364 391.368 286.191 392.373C288.018 393.378 289.412 394.757 290.373 396.51C291.357 398.24 291.849 400.192 291.849 402.366H285.664C285.664 401.314 285.43 400.32 284.961 399.385C284.493 398.45 283.801 397.691 282.888 397.106C281.974 396.499 280.861 396.195 279.549 396.195C278.167 396.195 277.042 396.44 276.176 396.931C275.309 397.422 274.676 398.065 274.278 398.859C273.903 399.631 273.716 400.484 273.716 401.419C273.716 402.12 273.809 402.728 273.997 403.242C274.208 403.733 274.559 404.201 275.051 404.645C275.543 405.065 276.211 405.51 277.054 405.977C277.921 406.421 279.022 406.935 280.358 407.52C282.935 408.525 285.102 409.542 286.859 410.57C288.616 411.599 289.951 412.802 290.865 414.182C291.779 415.561 292.235 417.267 292.235 419.301C292.235 420.96 291.931 422.468 291.322 423.824C290.736 425.156 289.893 426.301 288.792 427.26C287.69 428.218 286.367 428.954 284.82 429.469C283.298 429.96 281.587 430.205 279.69 430.205C276.832 430.205 274.407 429.644 272.416 428.522C270.448 427.377 268.948 425.892 267.917 424.069C266.91 422.223 266.406 420.247 266.406 418.144H272.626C272.697 419.92 273.095 421.299 273.821 422.281C274.571 423.263 275.473 423.941 276.527 424.315C277.581 424.689 278.636 424.876 279.69 424.876C281.072 424.876 282.232 424.677 283.169 424.279C284.106 423.859 284.809 423.263 285.277 422.491C285.769 421.72 286.015 420.82 286.015 419.792Z" fill="#121212" fill-opacity="0.95"/>
</svg>
